<svg width="12" height="13" viewBox="0 0 12 13" fill="none" xmlns="http://www.w3.org/2000/svg">
<mask id="mask0_2064_271" style="mask-type:alpha" maskUnits="userSpaceOnUse" x="0" y="0" width="12" height="13">
<rect y="0.5" width="12" height="12" fill="#D9D9D9"/>
</mask>
<g mask="url(#mask0_2064_271)">
<path d="M5.5 10.5V6.425L4.2 7.725L3.5 7L6 4.5L8.5 7L7.8 7.725L6.5 6.425V10.5H5.5ZM2 5V3.5C2 3.225 2.09792 2.98958 2.29375 2.79375C2.48958 2.59792 2.725 2.5 3 2.5H9C9.275 2.5 9.51042 2.59792 9.70625 2.79375C9.90208 2.98958 10 3.225 10 3.5V5H9V3.5H3V5H2Z" fill="#202123"/>
</g>
</svg>
