<svg width="16" height="15" viewBox="0 0 16 15" fill="none" xmlns="http://www.w3.org/2000/svg">
<path fill-rule="evenodd" clip-rule="evenodd" d="M2.16667 0H13.8333C14.75 0 15.5 0.75 15.5 1.66667V13.3333C15.5 14.25 14.75 15 13.8333 15H2.16667C1.25 15 0.5 14.25 0.5 13.3333V1.66667C0.5 0.75 1.25 0 2.16667 0ZM5.75 11.075C6.075 11.4 6.6 11.4 6.925 11.075L13.2417 4.75C13.5667 4.425 13.5667 3.9 13.2417 3.575C12.9167 3.25 12.3917 3.25 12.0667 3.575L6.33333 9.30833L3.93333 6.90833C3.60833 6.58333 3.08333 6.58333 2.75833 6.90833C2.60229 7.06403 2.5146 7.2754 2.5146 7.49583C2.5146 7.71626 2.60229 7.92764 2.75833 8.08333L5.75 11.075Z" fill="#666666"/>
</svg>
