<svg width="12" height="13" viewBox="0 0 12 13" fill="none" xmlns="http://www.w3.org/2000/svg">
<mask id="mask0_2064_362" style="mask-type:alpha" maskUnits="userSpaceOnUse" x="0" y="0" width="12" height="13">
<rect y="0.5" width="12" height="12" fill="#D9D9D9"/>
</mask>
<g mask="url(#mask0_2064_362)">
<path d="M1.5125 9V4C1.5125 3.725 1.61041 3.48958 1.80625 3.29375C2.00208 3.09792 2.2375 3 2.5125 3H9.5C9.775 3 10.0104 3.09792 10.2062 3.29375C10.4021 3.48958 10.5 3.725 10.5 4V9C10.5 9.275 10.4021 9.51042 10.2062 9.70625C10.0104 9.90208 9.775 10 9.5 10H2.5125C2.2375 10 2.00208 9.90208 1.80625 9.70625C1.61041 9.51042 1.5125 9.275 1.5125 9ZM2.5 9H4.1625V4H2.5V9ZM5.1625 9H6.825V4H5.1625V9ZM7.825 9H9.4875V4H7.825V9Z" fill="#202123"/>
</g>
</svg>
