<svg width="16" height="16" viewBox="0 0 16 16" fill="none" xmlns="http://www.w3.org/2000/svg">
<path fill-rule="evenodd" clip-rule="evenodd" d="M10.3333 0.666672H2.99996C2.26663 0.666672 1.66663 1.26667 1.66663 2.00001V10.6667C1.66663 11.0333 1.96663 11.3333 2.33329 11.3333C2.69996 11.3333 2.99996 11.0333 2.99996 10.6667V2.66667C2.99996 2.30001 3.29996 2.00001 3.66663 2.00001H10.3333C10.7 2.00001 11 1.7 11 1.33334C11 0.966672 10.7 0.666672 10.3333 0.666672ZM13 3.33334H5.66663C4.93329 3.33334 4.33329 3.93334 4.33329 4.66667V14C4.33329 14.7333 4.93329 15.3333 5.66663 15.3333H13C13.7333 15.3333 14.3333 14.7333 14.3333 14V4.66667C14.3333 3.93334 13.7333 3.33334 13 3.33334ZM6.33329 14H12.3333C12.7 14 13 13.7 13 13.3333V5.33334C13 4.96667 12.7 4.66667 12.3333 4.66667H6.33329C5.96663 4.66667 5.66663 4.96667 5.66663 5.33334V13.3333C5.66663 13.7 5.96663 14 6.33329 14Z" fill="#202123"/>
</svg>
