<svg width="14" height="16" viewBox="0 0 14 16" fill="none" xmlns="http://www.w3.org/2000/svg">
<path fill-rule="evenodd" clip-rule="evenodd" d="M3.25 15.5C2.8375 15.5 2.48437 15.3531 2.19062 15.0594C1.89687 14.7656 1.75 14.4125 1.75 14L1.75 12.75H1.25C0.62868 12.75 0.125 12.2463 0.125 11.625L0.125 8C0.125 7.37868 0.62868 6.875 1.25 6.875H1.75L1.75 2C1.75 1.5875 1.89687 1.23438 2.19062 0.940625C2.48437 0.646875 2.8375 0.5 3.25 0.5L9.25 0.5L13.75 5L13.75 14C13.75 14.4125 13.6031 14.7656 13.3094 15.0594C13.0156 15.3531 12.6625 15.5 12.25 15.5L3.25 15.5ZM12.25 5.75L12.25 6.875L3.25 6.875L3.25 2L8.5 2V5.75H12.25ZM3.25 14L3.25 12.75L12.25 12.75V14L3.25 14ZM10.1959 11.8751H9.95697L8.80615 7.87604H9.66583L10.3677 10.7983L11.0721 7.87604H11.94L10.7809 11.8751H10.5447H10.1959ZM7.1615 10.8231C7.1615 10.7517 7.15509 10.6867 7.14227 10.6281C7.12946 10.5695 7.10199 10.5155 7.05988 10.4661C7.01959 10.4166 6.96008 10.3672 6.88135 10.3177C6.80444 10.2683 6.70374 10.217 6.57922 10.1639C6.43091 10.1017 6.28717 10.0358 6.14801 9.96619C6.00885 9.89478 5.88342 9.81238 5.77173 9.71899C5.66003 9.62561 5.57123 9.51575 5.50531 9.3894C5.44122 9.26123 5.40918 9.11108 5.40918 8.93896C5.40918 8.77051 5.43939 8.61761 5.49982 8.48029C5.56207 8.34296 5.64996 8.22577 5.76349 8.12872C5.87701 8.02985 6.00977 7.95386 6.16174 7.90076C6.31555 7.84766 6.48676 7.82111 6.67535 7.82111C6.9317 7.82111 7.15326 7.87421 7.34003 7.98041C7.52863 8.08661 7.67419 8.23218 7.77673 8.41711C7.8811 8.60205 7.93329 8.81445 7.93329 9.05432H7.13129C7.13129 8.9408 7.11481 8.841 7.08185 8.75494C7.05072 8.66705 7.00037 8.59839 6.93079 8.54895C6.86121 8.49951 6.77148 8.47479 6.66162 8.47479C6.55908 8.47479 6.47394 8.49585 6.40619 8.53796C6.34027 8.57825 6.29083 8.63409 6.25787 8.70551C6.22675 8.77509 6.21118 8.85382 6.21118 8.94171C6.21118 9.00763 6.22675 9.06714 6.25787 9.12024C6.29083 9.17151 6.33569 9.2182 6.39246 9.26031C6.44922 9.3006 6.51605 9.33997 6.59296 9.37842C6.67169 9.41687 6.75775 9.45441 6.85114 9.49103C7.03241 9.56244 7.19263 9.64117 7.33179 9.72723C7.47095 9.81146 7.58722 9.90668 7.6806 10.0129C7.77399 10.1172 7.84448 10.2354 7.89209 10.3672C7.9397 10.499 7.9635 10.6492 7.9635 10.8176C7.9635 10.9843 7.9342 11.1362 7.87561 11.2736C7.81885 11.4091 7.73553 11.5262 7.62567 11.6251C7.51581 11.7222 7.38306 11.7972 7.22742 11.8503C7.07361 11.9034 6.90149 11.93 6.71106 11.93C6.52612 11.93 6.35126 11.9044 6.18646 11.8531C6.02167 11.8 5.8761 11.7203 5.74976 11.6141C5.62524 11.5061 5.52728 11.3697 5.45587 11.2049C5.38446 11.0383 5.34876 10.8414 5.34876 10.6144L6.1535 10.6144C6.1535 10.7352 6.16541 10.8387 6.18921 10.9247C6.21301 11.009 6.24963 11.0767 6.29907 11.128C6.34851 11.1774 6.40894 11.215 6.48035 11.2406C6.55359 11.2644 6.6369 11.2763 6.73029 11.2763C6.83649 11.2763 6.92072 11.2562 6.98297 11.2159C7.04706 11.1756 7.09283 11.1216 7.1203 11.0538C7.14777 10.9861 7.1615 10.9092 7.1615 10.8231ZM4.40448 10.543H3.60522C3.59973 10.7352 3.57684 10.8835 3.53656 10.9879C3.49628 11.0923 3.43402 11.1646 3.34979 11.2049C3.2674 11.2452 3.15845 11.2653 3.02295 11.2653C2.90576 11.2653 2.80872 11.2461 2.73181 11.2076C2.65674 11.1692 2.59723 11.1078 2.55328 11.0236C2.50934 10.9394 2.4773 10.8314 2.45715 10.6995C2.43701 10.5659 2.42694 10.4047 2.42694 10.2161L2.42694 9.53223C2.42694 9.33997 2.43793 9.177 2.4599 9.04333C2.4837 8.90967 2.52032 8.80164 2.56976 8.71924C2.6192 8.63684 2.68237 8.57733 2.75928 8.54071C2.83618 8.50226 2.92773 8.48303 3.03394 8.48303C3.17676 8.48303 3.28845 8.50592 3.36902 8.5517C3.44959 8.59564 3.50818 8.67255 3.5448 8.78241C3.58325 8.89044 3.60431 9.03967 3.60797 9.2301H4.41272C4.39075 8.92798 4.32574 8.67255 4.21771 8.46381C4.11151 8.25323 3.96045 8.09302 3.76453 7.98315C3.5686 7.87329 3.32507 7.81836 3.03394 7.81836C2.81604 7.81836 2.62012 7.8559 2.44617 7.93097C2.27405 8.00421 2.12665 8.11407 2.00397 8.26056C1.88312 8.40521 1.78973 8.58466 1.72382 8.79889C1.65973 9.01312 1.62769 9.2594 1.62769 9.53772V10.2161C1.62769 10.4944 1.6579 10.7407 1.71832 10.955C1.78058 11.1674 1.87213 11.3459 1.99298 11.4905C2.11383 11.6352 2.26032 11.7451 2.43243 11.8201C2.60455 11.8934 2.80139 11.93 3.02295 11.93C3.30859 11.93 3.55212 11.8769 3.75354 11.7707C3.95679 11.6645 4.11334 11.5089 4.22321 11.3038C4.33307 11.0969 4.39349 10.8433 4.40448 10.543Z" fill="#202123"/>
</svg>
