<svg width="97" height="76" viewBox="0 0 97 76" fill="none" xmlns="http://www.w3.org/2000/svg">
<g clip-path="url(#clip0_5_6528)">
<path d="M96.545 5.55874V74.7129C95.9711 75.5476 95.2243 75.97 94.1568 75.9675C81.9529 75.9476 69.7489 75.9576 57.545 75.9526C55.9813 75.9526 55.4601 75.5104 55.1042 73.97C55.618 72.457 56.0364 72.1614 57.9234 72.1837C58.575 72.1912 58.7604 72.0247 58.7529 71.3663C58.7203 67.7763 58.7153 64.1863 58.7529 60.5963C58.7604 59.9007 58.5173 59.8113 57.9034 59.8137C51.6611 59.8361 45.4163 59.8436 39.174 59.8063C38.4122 59.8013 38.3345 60.0672 38.3395 60.7032C38.3671 64.2311 38.3771 67.759 38.332 71.2868C38.322 72.0471 38.565 72.1986 39.2717 72.1837C41.061 72.144 41.4694 72.4496 41.9831 73.97C41.6148 75.5452 41.0785 75.9526 39.3369 75.9526C27.2457 75.9526 15.1546 75.9526 3.0609 75.9526C1.16892 75.9526 0.542436 75.3191 0.542436 73.4384C0.542436 60.7678 0.542436 48.0972 0.542436 35.4266C0.542436 25.8839 0.53993 16.3437 0.544942 6.80096C0.549953 4.27181 1.92321 2.23955 4.18607 1.36503C5.04561 1.03211 5.94524 0.970001 6.8549 0.970001C34.6633 0.970001 62.4717 0.970001 90.2776 0.972486C90.7136 0.972486 91.1522 1.0023 91.5857 1.05447C93.9037 1.33521 95.7456 2.93767 96.3545 5.18608C96.3921 5.32521 96.342 5.50409 96.545 5.55626V5.55874ZM48.451 15.9735C62.9152 15.9735 77.3795 15.9685 91.8438 15.9859C92.5229 15.9859 92.8136 15.889 92.7961 15.1039C92.7384 12.4108 92.781 9.7152 92.771 7.01959C92.766 5.42955 92.0944 4.76124 90.4881 4.76124C62.5268 4.75876 34.5681 4.75876 6.60681 4.76124C4.99549 4.76124 4.3239 5.42955 4.31889 7.01462C4.31137 9.67793 4.36149 12.3437 4.29132 15.0046C4.26877 15.8741 4.55946 15.9909 5.3363 15.9884C19.7079 15.966 34.0769 15.971 48.4485 15.971L48.451 15.9735ZM48.5913 19.7125C34.2197 19.7125 19.8482 19.72 5.47663 19.6927C4.577 19.6927 4.28881 19.8417 4.29132 20.8231C4.32891 37.5831 4.31889 54.3405 4.31889 71.1005C4.31889 71.2545 4.33893 71.4136 4.31638 71.5651C4.2412 72.0719 4.48177 72.1887 4.95289 72.1812C6.42137 72.1564 7.89235 72.1216 9.35833 72.1912C10.1677 72.2309 10.3883 72.0297 10.3858 71.1924C10.3557 56.3231 10.3632 41.4538 10.3632 26.5845C10.3632 24.3882 10.917 23.8367 13.1197 23.8367C36.7407 23.8367 60.3592 23.8367 83.9802 23.8367C86.1779 23.8367 86.7342 24.3907 86.7342 26.5895C86.7342 40.5594 86.7342 54.5318 86.7342 68.5018C86.7342 69.4931 86.7718 70.4869 86.7192 71.4757C86.6866 72.0769 86.9071 72.1986 87.4634 72.1837C88.8693 72.1465 90.2776 72.1117 91.6809 72.1937C92.578 72.2458 92.8061 72.0049 92.8036 71.0956C92.771 54.3356 92.7685 37.5781 92.8086 20.8181C92.8086 19.8268 92.5079 19.6927 91.6183 19.6927C77.2768 19.72 62.9378 19.7125 48.5963 19.7125H48.5913ZM24.3664 43.6948C21.2415 43.6948 18.1166 43.7122 14.9942 43.6799C14.3552 43.6724 14.1447 43.8239 14.1497 44.4898C14.1823 48.0823 14.1798 51.6772 14.1497 55.2697C14.1447 55.9057 14.3076 56.107 14.9741 56.1045C21.2214 56.0796 27.4713 56.0796 33.7186 56.1045C34.3626 56.1045 34.5681 55.9505 34.5606 55.2896C34.528 51.6971 34.5305 48.1021 34.5606 44.5097C34.5656 43.8687 34.4002 43.6724 33.7361 43.6799C30.6112 43.7146 27.4888 43.6948 24.3639 43.6948H24.3664ZM48.5462 56.0896C51.6711 56.0896 54.796 56.0722 57.9184 56.1045C58.575 56.1119 58.7579 55.9256 58.7504 55.2797C58.7203 51.6872 58.7203 48.0922 58.7504 44.4997C58.7554 43.8463 58.5649 43.6774 57.9159 43.6799C51.6686 43.7047 45.4188 43.7047 39.1715 43.6799C38.5199 43.6774 38.332 43.8463 38.337 44.4997C38.3696 48.0922 38.3671 51.6872 38.337 55.2797C38.332 55.9306 38.5149 56.1119 39.1715 56.1045C42.2964 56.0722 45.4188 56.0896 48.5437 56.0896H48.5462ZM72.8262 43.6948C69.6713 43.6948 66.5163 43.7122 63.3613 43.6799C62.7098 43.6724 62.5218 43.8463 62.5268 44.4997C62.5594 48.0922 62.5569 51.6872 62.5268 55.2797C62.5218 55.9281 62.7048 56.107 63.3613 56.1045C69.6086 56.0796 75.8584 56.0796 82.1057 56.1045C82.7623 56.107 82.9452 55.9281 82.9402 55.2797C82.9101 51.6872 82.9101 48.0922 82.9402 44.4997C82.9452 43.8438 82.7548 43.6724 82.1057 43.6799C79.0134 43.7122 75.9211 43.6948 72.8262 43.6948ZM24.3313 39.9557C27.4863 39.9557 30.6388 39.9383 33.7937 39.9706C34.4102 39.9781 34.5656 39.8041 34.5606 39.2029C34.533 35.5806 34.5355 31.9583 34.558 28.336C34.5606 27.7894 34.4478 27.5907 33.8439 27.5932C27.5364 27.6155 21.2265 27.6155 14.919 27.5932C14.2875 27.5932 14.1472 27.7919 14.1522 28.3807C14.1772 31.9732 14.1823 35.5632 14.1497 39.1557C14.1447 39.7967 14.3 39.983 14.9616 39.9756C18.084 39.9383 21.2064 39.9582 24.3288 39.9582L24.3313 39.9557ZM48.5437 27.6056C45.3887 27.6056 42.2362 27.618 39.0813 27.5932C38.5174 27.5882 38.3345 27.7248 38.3395 28.3112C38.3671 31.9658 38.3696 35.6179 38.3395 39.2725C38.3345 39.8787 38.54 39.9706 39.0838 39.9681C45.3912 39.9507 51.6987 39.9458 58.0086 39.9731C58.6752 39.9756 58.7504 39.7321 58.7479 39.1781C58.7278 35.5856 58.7203 31.9956 58.7529 28.4031C58.7579 27.7397 58.5574 27.5857 57.9134 27.5907C54.791 27.623 51.6686 27.6056 48.5462 27.6056H48.5437ZM72.7611 39.9557C75.8835 39.9557 79.0059 39.9358 82.1283 39.9731C82.7974 39.9805 82.9427 39.7867 82.9377 39.1507C82.9051 35.5582 82.9101 31.9682 82.9352 28.3758C82.9402 27.782 82.7924 27.5907 82.1659 27.5932C75.8885 27.6155 69.6111 27.618 63.3363 27.5932C62.6521 27.5907 62.5243 27.8118 62.5293 28.4354C62.5569 32.0279 62.5594 35.6179 62.5293 39.2104C62.5243 39.819 62.6897 39.9805 63.3012 39.9756C66.4561 39.9458 69.6086 39.9607 72.7636 39.9607L72.7611 39.9557ZM24.3764 72.1713C27.4988 72.1713 30.6212 72.1614 33.7436 72.1812C34.2899 72.1837 34.5706 72.1316 34.5631 71.4558C34.5255 67.8037 34.5355 64.1491 34.558 60.497C34.5606 59.9777 34.4302 59.8187 33.889 59.8212C27.5514 59.8386 21.2114 59.8411 14.8739 59.8212C14.295 59.8212 14.1472 59.9703 14.1497 60.5392C14.1772 64.1615 14.1823 67.7838 14.1447 71.4061C14.1372 72.1067 14.4028 72.1937 15.0067 72.1887C18.1291 72.1614 21.2515 72.1763 24.3739 72.1763L24.3764 72.1713ZM72.736 72.1713C75.8584 72.1713 78.9808 72.1539 82.1032 72.1862C82.7473 72.1937 82.9452 72.0446 82.9402 71.3788C82.9051 67.7888 82.9126 64.1963 82.9352 60.6063C82.9377 60.0373 82.8425 59.8137 82.1884 59.8162C75.881 59.8436 69.5735 59.8436 63.2686 59.8162C62.597 59.8137 62.5293 60.0647 62.5318 60.6162C62.5519 64.2062 62.5619 67.7987 62.5243 71.3887C62.5168 72.067 62.7398 72.1937 63.3688 72.1887C66.4912 72.1564 69.6136 72.1738 72.736 72.1738V72.1713Z" fill="#050505"/>
<path d="M48.4485 15.9735C34.0769 15.9735 19.7078 15.9685 5.33629 15.9909C4.55945 15.9909 4.26876 15.8766 4.29131 15.007C4.36148 12.3437 4.31136 9.68042 4.31888 7.01711C4.32389 5.42955 4.99548 4.76373 6.6068 4.76373C34.5681 4.76124 62.5268 4.76124 90.4881 4.76373C92.0944 4.76373 92.766 5.43452 92.771 7.02207C92.7785 9.71768 92.7384 12.4133 92.796 15.1064C92.8136 15.8915 92.5229 15.9884 91.8438 15.9884C77.3795 15.971 62.9152 15.976 48.451 15.976L48.4485 15.9735ZM28.8746 10.3438C28.8696 9.28539 28.0401 8.49037 26.9625 8.50528C25.9401 8.52019 25.1307 9.31769 25.1132 10.3264C25.0981 11.345 25.9677 12.2294 26.9926 12.2344C28.0376 12.2394 28.8796 11.3922 28.8746 10.3438ZM10.0149 8.50528C8.96739 8.49783 8.09783 9.34253 8.10284 10.3636C8.10785 11.3773 9.00498 12.2518 10.0224 12.2344C11.0298 12.217 11.8442 11.4071 11.8668 10.4009C11.8893 9.34253 11.0774 8.51025 10.0149 8.5028V8.50528ZM16.6356 10.391C16.6531 11.4369 17.5227 12.2692 18.5576 12.2344C19.5475 12.1996 20.387 11.35 20.397 10.3736C20.407 9.34253 19.55 8.5028 18.4925 8.50776C17.4174 8.51273 16.618 9.32266 16.6356 10.3934V10.391Z" fill="#7FB5FE"/>
<path d="M48.5913 19.7125C62.9328 19.7125 77.2718 19.72 91.6133 19.6927C92.5029 19.6927 92.8061 19.8243 92.8036 20.8181C92.766 37.5781 92.7685 54.3356 92.7986 71.0956C92.7986 72.0024 92.573 72.2458 91.6759 72.1937C90.2751 72.1117 88.8643 72.1465 87.4584 72.1837C86.9021 72.1986 86.6841 72.0769 86.7142 71.4757C86.7668 70.4869 86.7292 69.4931 86.7292 68.5018C86.7292 54.5318 86.7292 40.5594 86.7292 26.5895C86.7292 24.3907 86.1754 23.8367 83.9752 23.8367C60.3542 23.8367 36.7357 23.8367 13.1147 23.8367C10.9095 23.8367 10.3582 24.3882 10.3582 26.5845C10.3582 41.4538 10.3507 56.3231 10.3808 71.1924C10.3808 72.0272 10.1627 72.2285 9.35332 72.1912C7.88735 72.1216 6.41636 72.1564 4.94788 72.1812C4.47426 72.1887 4.2362 72.0719 4.31138 71.5651C4.33393 71.4136 4.31388 71.257 4.31388 71.1005C4.31388 54.3405 4.3239 37.5831 4.28632 20.8231C4.28632 19.8417 4.57199 19.6902 5.47162 19.6927C19.8432 19.7225 34.2147 19.7125 48.5863 19.7125H48.5913Z" fill="#FCFCFC"/>
<path d="M46.6341 73.975C45.0855 73.975 43.5368 73.975 41.9881 73.9725C41.4719 72.452 41.0659 72.1489 39.2767 72.1862C38.57 72.2011 38.3269 72.0471 38.337 71.2893C38.3821 67.7614 38.372 64.2335 38.3445 60.7057C38.3395 60.0696 38.4172 59.8063 39.179 59.8088C45.4213 59.846 51.6661 59.8386 57.9083 59.8162C58.5223 59.8162 58.7654 59.9032 58.7579 60.5988C58.7178 64.1888 58.7228 67.7788 58.7579 71.3688C58.7629 72.0247 58.5799 72.1937 57.9284 72.1862C56.0439 72.1614 55.6229 72.4595 55.1092 73.9725C53.5605 73.9725 52.0119 73.9725 50.4632 73.975C50.15 72.78 49.5185 72.1912 48.5512 72.1912C47.5814 72.1912 46.9499 72.78 46.6391 73.975H46.6341Z" fill="#E5E5F8"/>
<path d="M24.3664 43.6923C27.4913 43.6923 30.6162 43.7121 33.7386 43.6774C34.4026 43.6699 34.568 43.8662 34.563 44.5072C34.5329 48.0997 34.5329 51.6946 34.563 55.2871C34.568 55.948 34.3625 56.1045 33.721 56.102C27.4737 56.0796 21.2239 56.0772 14.9766 56.102C14.31 56.1045 14.1471 55.9057 14.1521 55.2672C14.1797 51.6748 14.1822 48.0798 14.1521 44.4873C14.1471 43.819 14.3576 43.6699 14.9967 43.6774C18.1216 43.7097 21.244 43.6923 24.3689 43.6923H24.3664Z" fill="#E4E4F6"/>
<path d="M48.5462 56.0871C45.4213 56.0871 42.2964 56.0697 39.174 56.102C38.5199 56.1095 38.3345 55.9281 38.3395 55.2772C38.3696 51.6847 38.3696 48.0897 38.3395 44.4972C38.3345 43.8438 38.5224 43.6749 39.174 43.6774C45.4213 43.7022 51.6711 43.7022 57.9184 43.6774C58.5674 43.6749 58.7579 43.8413 58.7529 44.4972C58.7203 48.0897 58.7228 51.6847 58.7529 55.2772C58.7579 55.9256 58.5775 56.1095 57.9209 56.102C54.796 56.0697 51.6736 56.0871 48.5487 56.0871H48.5462Z" fill="#E4E4F6"/>
<path d="M72.8262 43.6923C75.9186 43.6923 79.0134 43.7097 82.1057 43.6774C82.7548 43.6699 82.9477 43.8413 82.9402 44.4972C82.9076 48.0897 82.9101 51.6847 82.9402 55.2772C82.9452 55.9256 82.7623 56.1045 82.1057 56.102C75.8584 56.0772 69.6086 56.0772 63.3613 56.102C62.7073 56.1045 62.5218 55.9281 62.5268 55.2772C62.5569 51.6847 62.5569 48.0897 62.5268 44.4972C62.5218 43.8438 62.7073 43.6699 63.3613 43.6774C66.5163 43.7097 69.6713 43.6923 72.8262 43.6923Z" fill="#E4E4F6"/>
<path d="M24.3313 39.9557C21.2089 39.9557 18.0865 39.9358 14.9641 39.9731C14.3 39.9805 14.1447 39.7942 14.1522 39.1532C14.1847 35.5607 14.1797 31.9707 14.1547 28.3782C14.1497 27.7919 14.29 27.5882 14.9215 27.5907C21.2289 27.613 27.5389 27.613 33.8463 27.5907C34.4503 27.5907 34.563 27.7869 34.5605 28.3335C34.538 31.9558 34.5355 35.5781 34.563 39.2004C34.5681 39.8041 34.4127 39.9756 33.7962 39.9681C30.6412 39.9358 27.4888 39.9532 24.3338 39.9532L24.3313 39.9557Z" fill="#E5E5F8"/>
<path d="M48.5462 27.6031C51.6686 27.6031 54.791 27.6205 57.9134 27.5882C58.5574 27.5807 58.7579 27.7348 58.7529 28.4006C58.7203 31.9931 58.7278 35.5831 58.7479 39.1756C58.7504 39.7321 58.6777 39.9756 58.0086 39.9706C51.7012 39.9408 45.3937 39.9482 39.0838 39.9656C38.5375 39.9656 38.3345 39.8762 38.3395 39.27C38.3721 35.6179 38.3696 31.9633 38.3395 28.3087C38.3345 27.7224 38.5174 27.5882 39.0813 27.5907C42.2362 27.6155 45.3887 27.6031 48.5437 27.6031H48.5462Z" fill="#E5E5F8"/>
<path d="M72.7636 39.9557C69.6086 39.9557 66.4561 39.9383 63.3011 39.9706C62.6897 39.9756 62.5243 39.8141 62.5293 39.2054C62.5594 35.6129 62.5594 32.0229 62.5293 28.4304C62.5243 27.8068 62.6521 27.5857 63.3362 27.5882C69.6136 27.6155 75.891 27.613 82.1658 27.5882C82.7923 27.5882 82.9402 27.7795 82.9352 28.3708C82.9101 31.9633 82.9051 35.5533 82.9377 39.1458C82.9427 39.7818 82.7973 39.9756 82.1283 39.9681C79.0059 39.9308 75.8835 39.9507 72.7611 39.9507L72.7636 39.9557Z" fill="#E5E5F8"/>
<path d="M24.3789 72.1688C21.2565 72.1688 18.1341 72.1539 15.0117 72.1812C14.4053 72.1862 14.1422 72.1017 14.1497 71.3987C14.1873 67.7763 14.1798 64.154 14.1547 60.5317C14.1497 59.9603 14.3 59.8113 14.8789 59.8137C21.2164 59.8361 27.5565 59.8336 33.894 59.8137C34.4328 59.8137 34.5656 59.9728 34.5631 60.4895C34.5405 64.1416 34.533 67.7962 34.5681 71.4483C34.5756 72.1266 34.2949 72.1763 33.7486 72.1738C30.6262 72.1539 27.5038 72.1639 24.3814 72.1639L24.3789 72.1688Z" fill="#E5E5F8"/>
<path d="M72.7385 72.1688C69.6161 72.1688 66.4937 72.1514 63.3713 72.1837C62.7423 72.1912 62.5193 72.062 62.5268 71.3837C62.5619 67.7937 62.5544 64.2013 62.5343 60.6112C62.5318 60.0597 62.5995 59.8088 63.2711 59.8113C69.5785 59.8411 75.886 59.8386 82.1909 59.8113C82.8449 59.8088 82.9427 60.0324 82.9377 60.6013C82.9151 64.1913 82.9076 67.7838 82.9427 71.3738C82.9502 72.0396 82.7497 72.1887 82.1057 72.1812C78.9833 72.1489 75.8609 72.1663 72.7385 72.1663V72.1688Z" fill="#E5E5F8"/>
<path d="M46.6342 73.975C46.9449 72.7825 47.5764 72.1912 48.5462 72.1912C49.516 72.1912 50.145 72.7775 50.4582 73.975C50.2577 75.2396 49.5836 75.9303 48.5462 75.9303C47.5062 75.9303 46.8321 75.2396 46.6342 73.975Z" fill="#050505"/>
<path d="M28.8746 10.3438C28.8796 11.3922 28.0376 12.2394 26.9926 12.2344C25.9677 12.2294 25.0981 11.345 25.1132 10.3264C25.1282 9.32017 25.9401 8.52267 26.9626 8.50528C28.0401 8.48789 28.8671 9.28539 28.8746 10.3438Z" fill="#030507"/>
<path d="M10.0148 8.50528C11.0774 8.51273 11.8893 9.34502 11.8667 10.4034C11.8442 11.4096 11.0297 12.2195 10.0224 12.2369C9.00494 12.2543 8.10782 11.3798 8.1028 10.3661C8.09779 9.34502 8.96986 8.50031 10.0148 8.50776V8.50528Z" fill="#030405"/>
<path d="M16.6355 10.391C16.618 9.32017 17.4174 8.51025 18.4924 8.50528C19.5499 8.50031 20.407 9.34005 20.397 10.3711C20.3869 11.3475 19.5474 12.1996 18.5576 12.2319C17.5226 12.2692 16.6531 11.4344 16.6355 10.3885V10.391Z" fill="#030507"/>
</g>
<defs>
<clipPath id="clip0_5_6528">
<rect width="96" height="75" fill="white" transform="translate(0.544922 0.970001)"/>
</clipPath>
</defs>
</svg>
