<svg width="16" height="17" viewBox="0 0 16 17" fill="none" xmlns="http://www.w3.org/2000/svg">
<path fill-rule="evenodd" clip-rule="evenodd" d="M9.99992 6.83333H11.0599C11.6533 6.83333 11.9466 7.55333 11.5266 7.97333L8.46659 11.0333C8.20659 11.2933 7.78659 11.2933 7.52659 11.0333L4.46659 7.97333C4.04659 7.55333 4.34659 6.83333 4.93992 6.83333H5.99992V3.49999C5.99992 3.13333 6.29992 2.83333 6.66659 2.83333H9.33325C9.69992 2.83333 9.99992 3.13333 9.99992 3.49999V6.83333ZM3.99992 14.1667C3.63325 14.1667 3.33325 13.8667 3.33325 13.5C3.33325 13.1333 3.63325 12.8333 3.99992 12.8333H11.9999C12.3666 12.8333 12.6666 13.1333 12.6666 13.5C12.6666 13.8667 12.3666 14.1667 11.9999 14.1667H3.99992Z" fill="#202123"/>
</svg>
