<svg width="12" height="13" viewBox="0 0 12 13" fill="none" xmlns="http://www.w3.org/2000/svg">
<path d="M9.64562 4.49751V5.99751H3.06062L4.50062 4.55751C4.69562 4.36251 4.69562 4.04751 4.50062 3.85251C4.4072 3.75888 4.28038 3.70627 4.14812 3.70627C4.01586 3.70627 3.88904 3.75888 3.79562 3.85251L1.50062 6.14751C1.30562 6.34251 1.30562 6.65751 1.50062 6.85251L3.79562 9.14751C3.99062 9.34251 4.30562 9.34251 4.50062 9.14751C4.69562 8.95251 4.69562 8.63751 4.50062 8.44251L3.06062 6.99751H10.1456C10.4206 6.99751 10.6456 6.77251 10.6456 6.49751V4.49751C10.6456 4.22251 10.4206 3.99751 10.1456 3.99751C9.87062 3.99751 9.64562 4.22251 9.64562 4.49751Z" fill="#202123"/>
</svg>
